#!OML:ASF X:\für Bonn\!DataBase\2005_08_10_Bjorn_Final\c3d\bjorn.ASF
:FULLY-SPECIFIED
:DEGREES
106
root 0.458123 8.80798 3.53974 -184.645 -0.98198 -181.885
lowerback 26.9869 1.78505 5.57341
upperback 13.6865 -0.151838 0.495706
thorax 0.505083 -1.34367 -2.60719
lowerneck -26.2608 -0.145511 2.299
upperneck 2.46427 -1.31387 -4.96435
head 4.74869 -1.36634 -2.14292
rclavicle 2.54444e-014 1.35174e-014
rhumerus 79.3964 2.81349 -80.8455
rradius 3.4243
rwrist 52.1828
rhand -21.0046 10.3124
rfingers 7.12502
rthumb 5.36988 -19.5996
lclavicle 2.54444e-014 1.35174e-014
lhumerus 76.7859 -10.1073 85.732
lradius 4.34134
lwrist -65.7822
lhand -27.6041 -4.85334
lfingers 7.12502
lthumb -1.00355 25.124
rfemur -50.0367 -82.2295 -34.0436
rtibia 148.502
rfoot -54.5975 55.8205
rtoes -32.4306
lfemur -80.4283 44.7366 -15.3566
ltibia 150.502
lfoot -37.8667 -19.5061
ltoes -39.4834
107
root 0.453359 8.95572 3.54134 -184.317 -0.965521 -181.89
lowerback 26.8133 1.76343 5.59703
upperback 13.547 -0.10839 0.498258
thorax 0.428537 -1.29636 -2.62685
lowerneck -26.2675 -0.12803 2.38643
upperneck 2.53073 -1.29973 -5.06739
head 4.77113 -1.36402 -2.18928
rclavicle 4.37326e-015 7.95139e-015
rhumerus 79.2991 2.83564 -80.7344
rradius 3.3342
rwrist 51.9982
rhand -20.8225 10.3088
rfingers 7.12502
rthumb 5.54573 -19.5987
lclavicle 4.37326e-015 7.95139e-015
lhumerus 76.958 -10.0956 85.7345
lradius 4.11627
lwrist -65.6756
lhand -27.4112 -4.99723
lfingers 7.12502
lthumb -0.817264 24.9809
rfemur -63.9276 -78.6617 -18.6185
rtibia 147.514
rfoot -51.3228 54.3803
rtoes -32.7306
lfemur -80.2473 43.7231 -16.0629
ltibia 149.474
lfoot -37.3665 -19.0031
ltoes -39.5198
108
root 0.448027 9.11289 3.54193 -183.908 -0.947518 -181.899
lowerback 26.5349 1.73481 5.59361
upperback 13.3913 -0.0717608 0.511314
thorax 0.380295 -1.24819 -2.61852
lowerneck -26.2574 -0.115187 2.40522
upperneck 2.61508 -1.2693 -5.14115
head 4.79802 -1.35136 -2.21344
rclavicle -7.15625e-015 -1.19271e-014
rhumerus 79.1993 2.91411 -80.6118
rradius 3.28936
rwrist 51.932
rhand -20.7891 10.267
rfingers 7.12502
rthumb 5.57794 -19.6396
lclavicle -7.15625e-015 -1.19271e-014
lhumerus 77.1226 -10.0562 85.7566
lradius 3.92889
lwrist -65.7089
lhand -27.1968 -5.07848
lfingers 7.12502
lthumb -0.610182 24.9004
rfemur -71.0163 -74.4227 -10.0103
rtibia 146.462
rfoot -48.1135 52.6982
rtoes -33.0187
lfemur -80.1187 42.7094 -16.8027
ltibia 148.373
lfoot -36.7935 -18.6604
ltoes -39.3538
109
root 0.443476 9.27792 3.54123 -183.452 -0.931131 -181.926
lowerback 26.2153 1.71374 5.58363
upperback 13.223 -0.0205118 0.504947
thorax 0.338571 -1.18868 -2.63118
lowerneck -26.3301 -0.100076 2.47215
upperneck 2.75266 -1.24827 -5.23053
head 4.8529 -1.34486 -2.2531
rclavicle -3.18055e-015 -1.59028e-015
rhumerus 79.07 2.94349 -80.506
rradius 3.3546
rwrist 52.0413
rhand -20.8287 10.2143
rfingers 7.12502
rthumb 5.53973 -19.6933
lclavicle -3.18055e-015 -1.59028e-015
lhumerus 77.2541 -10.0456 85.7625
lradius 3.82515
lwrist -65.8479
lhand -26.9072 -5.18583
lfingers 7.12502
lthumb -0.330447 24.7937
rfemur -74.8084 -69.8203 -4.69867
rtibia 145.344
rfoot -45.3098 50.6177
rtoes -33.4174
lfemur -80.0097 41.6891 -17.5754
ltibia 147.214
lfoot -36.2155 -18.2964
ltoes -39.1352
110
root 0.438968 9.45163 3.53902 -182.964 -0.912036 -181.937
lowerback 25.8598 1.68904 5.58493
upperback 13.038 0.034647 0.500734
thorax 0.296642 -1.12397 -2.64857
lowerneck -26.3879 -0.0893917 2.54278
upperneck 2.91522 -1.22823 -5.33325
head 4.91376 -1.33841 -2.29781
rclavicle -1.35174e-014 -1.11319e-014
rhumerus 78.9298 2.97781 -80.4017
rradius 3.47978
rwrist 52.241
rhand -20.9559 10.1297
rfingers 7.12502
rthumb 5.41694 -19.7811
lclavicle -1.35174e-014 -1.11319e-014
lhumerus 77.2688 -10.0502 85.7821
lradius 3.85877
lwrist -66.0406
lhand -26.6607 -5.19615
lfingers 7.12502
lthumb -0.0924185 24.7836
rfemur -76.7688 -65.1201 -1.21657
rtibia 144.146
rfoot -42.7142 48.4898
rtoes -33.6415
lfemur -79.8646 40.6631 -18.2916
ltibia 145.993
lfoot -35.665 -17.9321
ltoes -38.9547
111
root 0.435156 9.63276 3.53745 -182.429 -0.882952 -181.964
lowerback 25.4684 1.67293 5.55962
upperback 12.8432 0.0983641 0.49344
thorax 0.26124 -1.05407 -2.65599
lowerneck -26.4933 -0.0912348 2.56082
upperneck 3.11232 -1.21281 -5.3704
head 4.9924 -1.33018 -2.31447
rclavicle 4.77083e-015 -1.51076e-014
rhumerus 78.822 3.00504 -80.2917
rradius 3.66421
rwrist 52.5235
rhand -21.109 10.046
rfingers 7.12502
rthumb 5.26906 -19.8685
lclavicle 4.77083e-015 -1.51076e-014
lhumerus 77.2526 -10.0758 85.8091
lradius 3.94741
lwrist -66.2867
lhand -26.4633 -5.18975
lfingers 7.12502
lthumb 0.0982371 24.79
rfemur -77.9344 -60.3564 1.41496
rtibia 142.888
rfoot -40.5129 46.1046
rtoes -33.9979
lfemur -79.6708 35.8164 -18.9173
ltibia 144.705
lfoot -34.2436 -16.2801
ltoes -38.7485
112
root 0.431539 9.8179 3.53606 -181.902 -0.873994 -181.975
lowerback 25.0734 1.64429 5.54658
upperback 12.6542 0.144153 0.490417
thorax 0.234864 -0.99394 -2.6613
lowerneck -26.5232 -0.0714022 2.63889
upperneck 3.24616 -1.18466 -5.4746
head 5.04069 -1.31999 -2.35934
rclavicle -9.93923e-015 -7.95139e-016
rhumerus 78.7302 3.04756 -80.19
rradius 3.95374
rwrist 52.7663
rhand -21.1953 9.95565
rfingers 7.12502
rthumb 5.18577 -19.9609
lclavicle -9.93923e-015 -7.95139e-016
lhumerus 77.2063 -10.0853 85.8289
lradius 4.09891
lwrist -66.5103
lhand -26.3342 -5.17665
lfingers 7.12502
lthumb 0.22294 24.803
rfemur -78.4092 -55.8587 3.32634
rtibia 141.594
rfoot -38.8725 43.6229
rtoes -34.4637
lfemur -79.385 31.5338 -19.3926
ltibia 143.383
lfoot -33.0689 -14.7275
ltoes -38.5392
113
root 0.428474 10.0088 3.53457 -181.365 -0.854246 -182.004
lowerback 24.6582 1.63027 5.521
upperback 12.4655 0.205271 0.482189
thorax 0.220773 -0.926096 -2.66851
lowerneck -26.5311 -0.074927 2.65566
upperneck 3.38224 -1.17126 -5.51542
head 5.0862 -1.31159 -2.37512
rclavicle 3.57812e-015 4.77083e-015
rhumerus 78.6608 3.06356 -80.0794
rradius 4.2857
rwrist 52.9928
rhand -21.2584 9.91698
rfingers 7.12502
rthumb 5.12482 -20.001
lclavicle 3.57812e-015 4.77083e-015
lhumerus 77.1962 -10.1162 85.8511
lradius 4.21651
lwrist -66.7044
lhand -26.2647 -5.11649
lfingers 7.12502
lthumb 0.290106 24.8631
rfemur -78.5582 -51.518 4.84128
rtibia 140.242
rfoot -37.4476 41.1704
rtoes -34.8381
lfemur -79.0395 27.7435 -19.8135
ltibia 142.003
lfoot -32.0941 -13.1879
ltoes -38.3103
114
root 0.425805 10.2012 3.53294 -180.809 -0.83426 -182.032
lowerback 24.2179 1.61389 5.50519
upperback 12.2711 0.266334 0.461035
thorax 0.214429 -0.856189 -2.69477
lowerneck -26.5125 -0.0734313 2.74114
upperneck 3.49815 -1.16842 -5.61423
head 5.12088 -1.31178 -2.42132
rclavicle -3.18055e-015 1.59028e-014
rhumerus 78.6917 3.04625 -79.9719
rradius 4.52552
rwrist 53.1476
rhand -21.3243 9.86859
rfingers 7.12502
rthumb 5.06125 -20.051
lclavicle -3.18055e-015 1.59028e-014
lhumerus 77.2061 -10.1506 85.8516
lradius 4.32805
lwrist -66.8557
lhand -26.2305 -5.08602
lfingers 7.12502
lthumb 0.323133 24.8935
rfemur -78.4798 -47.4805 6.06911
rtibia 138.853
rfoot -36.278 38.8387
rtoes -35.0673
lfemur -78.6981 24.5277 -20.1651
ltibia 140.607
lfoot -31.2802 -11.8556
ltoes -38.0585
115
root 0.423701 10.3971 3.52962 -180.284 -0.80426 -182.041
lowerback 23.7839 1.60237 5.47056
upperback 12.0847 0.323853 0.463459
thorax 0.214713 -0.79227 -2.68372
lowerneck -26.4536 -0.0638767 2.80719
upperneck 3.60249 -1.14818 -5.70068
head 5.14705 -1.30174 -2.4577
rclavicle -5.56597e-015 -1.82882e-014
rhumerus 78.8669 3.058 -79.8356
rradius 4.53936
rwrist 53.2033
rhand -21.4233 9.89447
rfingers 7.12502
rthumb 4.96561 -20.0273
lclavicle -5.56597e-015 -1.82882e-014
lhumerus 77.2498 -10.1307 85.8597
lradius 4.41701
lwrist -66.954
lhand -26.1462 -5.03108
lfingers 7.12502
lthumb 0.40456 24.9483
rfemur -78.1872 -43.6853 7.06475
rtibia 137.434
rfoot -35.3756 36.5382
rtoes -35.2763
lfemur -78.2588 21.8291 -20.4337
ltibia 139.181
lfoot -30.6694 -10.5394
ltoes -38.059
116
root 0.422321 10.593 3.52466 -179.788 -0.785497 -182.048
lowerback 23.3437 1.58879 5.45871
upperback 11.9071 0.378768 0.449123
thorax 0.230569 -0.72886 -2.70276
lowerneck -26.3496 -0.0685698 2.87289
upperneck 3.70397 -1.14537 -5.75843
head 5.16509 -1.29569 -2.48578
rclavicle -1.63003e-014 -1.03368e-014
rhumerus 79.0573 3.07035 -79.7308
rradius 4.49502
rwrist 53.1514
rhand -21.4818 9.90762
rfingers 7.12502
rthumb 4.90916 -20.0155
lclavicle -1.63003e-014 -1.03368e-014
lhumerus 77.3194 -10.1443 85.8411
lradius 4.48225
lwrist -66.9793
lhand -26.042 -4.99593
lfingers 7.12502
lthumb 0.505202 24.9832
rfemur -77.7168 -40.2858 7.88837
rtibia 135.989
rfoot -34.8969 34.2178
rtoes -35.7412
lfemur -77.7696 19.5371 -20.6468
ltibia 137.734
lfoot -30.1508 -9.40864
ltoes -37.8986
